<svg fill="none" height="314" viewBox="0 0 600 314" width="600" xmlns="http://www.w3.org/2000/svg" xmlns:xlink="http://www.w3.org/1999/xlink"><clipPath id="a"><path d="m361.515 21.6523h193.242v190.09h-193.242z"/></clipPath><mask id="b" height="64" maskUnits="userSpaceOnUse" width="65" x="426" y="81"><path d="m490.003 113.05c0 17.555-14.231 31.782-31.779 31.782-17.554 0-31.779-14.227-31.779-31.782 0-17.5475 14.228-31.7785 31.779-31.7785 17.548 0 31.779 14.231 31.779 31.7785z" fill="#fff"/></mask><g clip-path="url(#a)"><path d="m432.137 63.667c11.602 0 21.008-9.4053 21.008-21.0073 0-11.6021-9.406-21.0074-21.008-21.0074s-21.007 9.4053-21.007 21.0074c0 11.602 9.405 21.0073 21.007 21.0073z" fill="#40516c"/><path d="m390.69 99.0771c11.602 0 21.007-9.4053 21.007-21.0073s-9.405-21.0073-21.007-21.0073-21.007 9.4053-21.007 21.0073 9.405 21.0073 21.007 21.0073z" fill="#40516c"/><path d="m525.682 99.0771c11.602 0 21.008-9.4053 21.008-21.0073s-9.406-21.0073-21.008-21.0073-21.007 9.4053-21.007 21.0073 9.405 21.0073 21.007 21.0073z" fill="#40516c"/><path d="m533.749 149.738c11.602 0 21.007-9.405 21.007-21.007s-9.405-21.007-21.007-21.007-21.007 9.405-21.007 21.007 9.405 21.007 21.007 21.007z" fill="#40516c"/><path d="m382.522 149.738c11.602 0 21.007-9.405 21.007-21.007s-9.405-21.007-21.007-21.007-21.007 9.405-21.007 21.007 9.405 21.007 21.007 21.007z" fill="#40516c"/><path d="m508.293 194.601c11.602 0 21.007-9.406 21.007-21.008s-9.405-21.007-21.007-21.007-21.007 9.405-21.007 21.007 9.405 21.008 21.007 21.008z" fill="#40516c"/><path d="m408.232 194.601c11.602 0 21.007-9.406 21.007-21.008s-9.405-21.007-21.007-21.007-21.008 9.405-21.008 21.007 9.406 21.008 21.008 21.008z" fill="#40516c"/><path d="m458.386 211.739c11.602 0 21.007-9.405 21.007-21.007s-9.405-21.007-21.007-21.007-21.007 9.405-21.007 21.007 9.405 21.007 21.007 21.007z" fill="#40516c"/><path d="m483.443 63.667c11.602 0 21.007-9.4053 21.007-21.0073 0-11.6021-9.405-21.0074-21.007-21.0074s-21.008 9.4053-21.008 21.0074c0 11.602 9.406 21.0073 21.008 21.0073z" fill="#40516c"/><path d="m450.072 35.8059c3.773 9.9567-1.237 21.0897-11.193 24.8631-9.957 3.7734-21.09-1.2366-24.864-11.1933-3.773-9.9567 1.237-21.0898 11.197-24.8631 9.953-3.7766 21.086 1.2366 24.86 11.1933z" fill="#ff3273"/><path d="m446.952 37.4579c3.088 8.146-1.012 17.2561-9.161 20.3446-8.146 3.0884-17.256-1.0116-20.342-9.1608-3.088-8.1461 1.012-17.2561 9.158-20.3414 8.146-3.0885 17.256 1.0115 20.345 9.1576z" fill="#fff"/><path d="m443.518 38.2923c2.403 6.3387-.787 13.4225-7.125 15.8229-6.336 2.4035-13.42-.7864-15.823-7.1251-2.404-6.3355.786-13.4193 7.125-15.8228 6.335-2.4004 13.419.7895 15.823 7.125z" fill="#ff3273"/><path d="m440.239 39.5354c1.715 4.5249-.565 9.5857-5.089 11.3011-4.528 1.7155-9.586-.5644-11.302-5.0893-1.715-4.5249.562-9.5856 5.09-11.3011 4.525-1.7155 9.585.5644 11.301 5.0893z" fill="#fff"/><path d="m436.96 40.7784c1.031 2.7143-.336 5.7521-3.053 6.7794-2.718 1.0306-5.753-.3361-6.783-3.0536-1.031-2.7143.336-5.752 3.054-6.7825 2.717-1.0274 5.755.3392 6.782 3.0567z" fill="#ff3273"/><path d="m434.398 41.4382c.514 1.3572-.168 2.876-1.525 3.3897s-2.876-.168-3.393-1.5252c-.514-1.3571.168-2.876 1.528-3.3897 1.358-.5168 2.876.1649 3.39 1.5252z" fill="#fff"/><path d="m437.493 36.9485-.355-4.2998 5.118-5.0354.358 4.2966z" fill="#66d6c0"/><path d="m437.493 36.9487 4.293.4249 5.118-5.0385-4.29-.4249z" fill="#66d6c0"/><path d="m443.654 31.0546c.317.3298.307.853-.022 1.1701l-11.13 10.7367c-.33.3171-.853.3076-1.17-.0222s-.308-.853.022-1.1701l11.13-10.7367c.33-.3171.853-.3076 1.17.0222z" fill="#02193c"/><path d="m502.627 42.6476c0 10.6479-8.632 19.2823-19.283 19.2823-10.648 0-19.282-8.6312-19.282-19.2823s8.634-19.2824 19.285-19.2824c10.648 0 19.28 8.6344 19.28 19.2824z" fill="#7d899a"/><path d="m477.494 190.656c0 10.648-8.631 19.283-19.282 19.283-10.648 0-19.283-8.632-19.283-19.283 0-10.648 8.631-19.282 19.283-19.282 10.651 0 19.282 8.634 19.282 19.282z" fill="#7d899a"/><path d="m390.665 97.1096c10.649 0 19.282-8.633 19.282-19.2823 0-10.6494-8.633-19.2824-19.282-19.2824-10.65 0-19.283 8.633-19.283 19.2824 0 10.6493 8.633 19.2823 19.283 19.2823z" fill="#7d899a"/><path d="m525.762 97.1096c10.649 0 19.282-8.633 19.282-19.2823 0-10.6494-8.633-19.2824-19.282-19.2824-10.65 0-19.283 8.633-19.283 19.2824 0 10.6493 8.633 19.2823 19.283 19.2823z" fill="#7d899a"/><path d="m401.679 128.248c0 10.648-8.631 19.283-19.282 19.283-10.648 0-19.283-8.632-19.283-19.283s8.632-19.282 19.283-19.282 19.282 8.631 19.282 19.282z" fill="#7d899a"/><path d="m552.99 128.64c0 10.648-8.631 19.282-19.282 19.282-10.648 0-19.282-8.631-19.282-19.282s8.631-19.283 19.282-19.283 19.282 8.632 19.282 19.283z" fill="#7d899a"/><path d="m527.407 173.375c0 10.648-8.631 19.282-19.282 19.282s-19.282-8.631-19.282-19.282c0-10.648 8.631-19.282 19.282-19.282s19.282 8.634 19.282 19.282z" fill="#7d899a"/><path d="m427.584 173.375c0 10.648-8.631 19.282-19.283 19.282-10.647 0-19.282-8.631-19.282-19.282 0-10.648 8.631-19.282 19.282-19.282 10.652 0 19.283 8.631 19.283 19.282z" fill="#7d899a"/><path d="m489.53 125.875c7.11-17.295-1.147-37.0793-18.443-44.1889-17.295-7.1097-37.079 1.1475-44.189 18.4429-7.11 17.296 1.147 37.08 18.443 44.19 17.295 7.109 37.08-1.148 44.189-18.444z" fill="#7d899a"/><g fill="#40516c"><path d="m458.944 151.37h.057c.428.019.752.263.72.542-.184 1.643-.276 3.279-.276 5.026 0 1.804.098 3.574.295 5.267.032.279-.289.523-.717.546-.428.022-.802-.188-.834-.47-.196-1.715-.298-3.513-.298-5.343 0-1.769.095-3.431.279-5.099.029-.266.368-.469.774-.469z"/><path d="m461.649 158.704c.184 0 .368.064.514.197.32.285.352.777.066 1.097l-2.749 3.104c-.136.156-.33.247-.536.26s-.409-.057-.561-.193l-3.104-2.749c-.321-.286-.352-.777-.067-1.098.285-.32.777-.352 1.097-.066l2.521 2.232 2.232-2.521c.159-.174.374-.263.587-.263z"/><path d="m483.696 141.638c.016-.013.029-.025.045-.035.342-.26.745-.279.9-.044.917 1.376 1.896 2.689 3.019 4.027 1.16 1.382 2.375 2.676 3.612 3.846.202.193.114.587-.2.878-.314.292-.736.371-.939.178-1.255-1.189-2.486-2.499-3.662-3.9-1.139-1.357-2.134-2.689-3.063-4.088-.152-.225-.022-.602.288-.862z"/><path d="m490.485 145.52c.14-.117.324-.187.52-.181.428.013.768.368.758.799l-.111 4.145c-.006.206-.092.402-.241.542-.149.143-.349.219-.555.212l-4.144-.111c-.428-.012-.768-.367-.758-.799.013-.428.368-.767.799-.758l3.368.089.088-3.367c.003-.229.111-.431.276-.571z"/><path d="m495.267 121.245c.003-.019.006-.038.013-.057.095-.418.39-.694.659-.615 1.586.466 3.181.84 4.902 1.145 1.776.314 3.539.523 5.239.625.282.015.466.374.412.799-.054.424-.323.757-.606.738-1.725-.101-3.513-.317-5.314-.634-1.744-.307-3.364-.688-4.972-1.16-.26-.073-.403-.444-.333-.841z"/><path d="m502.963 119.853c.031-.18.127-.352.282-.472.336-.266.824-.213 1.091.124l2.581 3.247c.127.161.187.367.165.57-.022.206-.127.394-.289.52l-3.247 2.582c-.336.266-.824.212-1.094-.124-.266-.336-.212-.825.124-1.091l2.638-2.096-2.096-2.638c-.143-.184-.193-.409-.155-.622z"/><path d="m493.063 97.6983c-.009-.0158-.019-.0317-.028-.0507-.197-.3805-.146-.78.111-.8942 1.515-.6627 2.977-1.4015 4.49-2.2736 1.56-.9005 3.047-1.874 4.414-2.8887.225-.168.599-.0126.83.3488.232.3615.238.7896.013.9577-1.389 1.0305-2.895 2.0167-4.477 2.9299-1.535.8847-3.019 1.633-4.557 2.3084-.247.1078-.596-.0856-.796-.4376z"/><path d="m498.06 91.6864c-.092-.1585-.126-.3488-.088-.5454.085-.4217.498-.6912.916-.6056l4.062.8276c.203.0412.381.1617.495.3329.114.1713.155.3837.114.5835l-.828 4.0619c-.085.4218-.498.6913-.916.6057-.422-.0856-.691-.4979-.606-.9164l.672-3.3009-3.301-.6723c-.228-.0412-.412-.1839-.52-.371z"/><path d="m472.186 78.5333c-.019-.0063-.035-.0126-.054-.0222-.396-.1648-.615-.5041-.488-.7578.735-1.4808 1.382-2.987 1.978-4.6295.615-1.6933 1.129-3.3929 1.525-5.0481.067-.2727.451-.3932.86-.2664s.688.4503.624.7261c-.399 1.6806-.922 3.4056-1.547 5.1242-.606 1.6648-1.262 3.1932-2.007 4.6962-.121.241-.511.3139-.891.1775z"/><path d="m472.155 70.7143c-.171-.0634-.323-.1871-.418-.3583-.206-.3773-.064-.8498.314-1.0527l3.646-1.9755c.181-.0983.393-.1205.593-.0634.197.0602.365.1934.463.3741l1.976 3.6466c.206.3773.063.8498-.314 1.0527-.378.2061-.85.0635-1.053-.3139l-1.605-2.9616-2.961 1.6076c-.209.1078-.441.1174-.641.0444z"/><path d="m445.756 78.6598c-.019.0063-.035.0126-.054.019-.409.1268-.795.0095-.862-.2664-.39-1.6076-.863-3.1772-1.459-4.8166-.618-1.6933-1.316-3.3263-2.077-4.8483-.126-.2505.092-.5898.489-.7579.396-.1649.818-.0983.945.1554.773 1.5442 1.48 3.1994 2.108 4.9181.606 1.6647 1.085 3.2565 1.481 4.8864.06.2632-.19.5707-.571.7103z"/><path d="m440.705 72.693c-.171.0634-.368.0666-.552-.0064-.399-.1585-.596-.6088-.437-1.0083l1.522-3.8558c.076-.1903.225-.3457.412-.4281.19-.0825.403-.0856.596-.0095l3.856 1.522c.4.1586.596.6088.438 1.0084-.159.3995-.609.5961-1.009.4375l-3.133-1.2366-1.236 3.1329c-.086.2124-.257.3709-.457.4439z"/><path d="m426.331 89.7684c-.009.0158-.019.0317-.028.0475-.232.3615-.603.5169-.831.352-1.332-.9798-2.702-1.8804-4.214-2.7524-1.563-.9005-3.146-1.7027-4.709-2.3781-.257-.111-.308-.5106-.114-.8942.197-.3805.564-.5993.821-.4884 1.586.6881 3.193 1.4999 4.776 2.4131 1.534.8847 2.923 1.7979 4.277 2.7936.216.1585.222.5549.022.9069z"/><path d="m418.623 88.4431c-.092.1586-.238.2854-.428.3488-.406.1364-.847-.0824-.983-.4915l-1.313-3.9319c-.067-.1966-.051-.4091.041-.593s.254-.3234.45-.39l3.932-1.3128c.406-.1363.847.0825.983.4915.137.4059-.082.8467-.491.983l-3.196 1.0686 1.068 3.1963c.076.2156.045.4439-.063.631z"/><path d="m421.41 117.86c.003.019.006.038.01.057.053.425-.13.783-.41.802-1.648.105-3.278.298-4.997.6-1.776.314-3.504.719-5.137 1.205-.269.079-.564-.194-.659-.612-.095-.419.047-.822.317-.904 1.655-.495 3.409-.904 5.21-1.221 1.744-.307 3.396-.504 5.07-.609.266-.016.526.286.596.682z"/><path d="m414.656 121.801c.032.18 0 .374-.102.542-.225.364-.703.482-1.068.257l-3.536-2.169c-.174-.108-.301-.282-.348-.482-.048-.2-.016-.412.091-.587l2.169-3.535c.226-.365.704-.482 1.069-.257s.482.704.257 1.068l-1.763 2.873 2.873 1.763c.196.118.32.314.358.527z"/><path d="m429.046 141.596c.015.012.028.025.044.038.314.291.406.685.203.878-1.196 1.142-2.321 2.334-3.441 3.672-1.16 1.383-2.222 2.803-3.161 4.224-.155.234-.558.215-.9-.045-.343-.26-.492-.659-.337-.894.952-1.443 2.03-2.882 3.206-4.284 1.139-1.357 2.277-2.568 3.491-3.726.191-.187.584-.123.895.137z"/><path d="m426.401 148.955c.14.117.241.285.27.482.063.425-.229.821-.654.885l-4.1.612c-.203.031-.412-.023-.577-.143-.165-.124-.276-.308-.307-.511l-.612-4.1c-.064-.424.228-.821.653-.884.425-.064.821.228.885.653l.497 3.333 3.333-.498c.228-.038.447.031.612.171z"/><path d="m489.962 113.099c0 17.528-14.212 31.74-31.741 31.74-17.532 0-31.741-14.212-31.741-31.74 0-17.5325 14.212-31.7445 31.741-31.7445 17.529.0032 31.741 14.2152 31.741 31.7445z"/></g><path d="m415.014 169.646h-7.502v12.937h7.502z" fill="#f7b17d"/><path d="m399.702 181.923c.092.013.187.023.282.023l10.09 1.836c1.015 0 1.833-.822 1.833-1.836v-10.068h-12.208v10.045z" fill="#f3ba95"/><path d="m419.932 168.255h-9.573c-.856 0-1.553.694-1.553 1.554v.777c0 .856.694 1.553 1.553 1.553h9.573c.856 0 1.554-.694 1.554-1.553v-.777c-.003-.86-.698-1.554-1.554-1.554z" fill="#f3ba95"/><path d="m411.006 168.256h-9.573c-.856 0-1.554.694-1.554 1.554v.776c0 .857.695 1.554 1.554 1.554h9.573c.856 0 1.554-.694 1.554-1.554v-.776c-.003-.86-.698-1.554-1.554-1.554z" fill="#f3ba95"/><path d="m414.57 172.136h5.362c.704 0 1.297-.469 1.487-1.11-.212.165-.466.276-.748.314z" fill="#de9c76"/><path d="m419.155 172.138h-9.573c-.856 0-1.553.694-1.553 1.553v.777c0 .856.694 1.554 1.553 1.554h9.573c.857 0 1.554-.694 1.554-1.554v-.777c0-.859-.697-1.553-1.554-1.553z" fill="#f3ba95"/><path d="m413.793 176.019h5.362c.704 0 1.297-.469 1.488-1.11-.21.165-.467.276-.749.314z" fill="#de9c76"/><path d="m418.379 176.019h-9.573c-.857 0-1.554.694-1.554 1.553v.777c0 .856.694 1.554 1.554 1.554h9.573c.856 0 1.553-.694 1.553-1.554v-.777c0-.859-.697-1.553-1.553-1.553z" fill="#f3ba95"/><path d="m413.016 179.9h5.362c.704 0 1.297-.466 1.488-1.11-.21.165-.466.276-.749.314z" fill="#de9c76"/><path d="m417.602 179.9h-7.246c-.856 0-1.554.695-1.554 1.554v.777c0 .856.695 1.554 1.554 1.554h7.246c.856 0 1.553-.695 1.553-1.554v-.777c0-.859-.694-1.554-1.553-1.554z" fill="#f3ba95"/><path d="m412.243 183.782h5.362c.704 0 1.297-.466 1.487-1.11-.209.162-.466.276-.748.314z" fill="#de9c76"/><path d="m407.41 160.478c-.561.608 0 1.639-1.024 4.299-1.024 2.661-4.915 4.094-4.915 4.094l-.409 1.842 4.3 2.458 3.276-1.227s1.024-1.434 1.842-3.482c.818-2.049.206-5.118-.409-6.757-.615-1.637-1.912-2.039-2.661-1.227z" fill="#f3ba95"/><path d="m404.148 166.798h-4.915v16.558h4.915z" fill="#fff"/><path d="m401.043 165.765h-3.881c-.856 0-1.554.694-1.554 1.553v.467.516 13.505.466.517c0 .856.695 1.554 1.554 1.554h3.881c.856 0 1.554-.694 1.554-1.554v-.517-.466-13.505-.516-.467c-.003-.859-.698-1.553-1.554-1.553z" fill="#40516c"/><path d="m399.103 180.202c-.787 0-1.424.637-1.424 1.424 0 .786.637 1.424 1.424 1.424.786 0 1.423-.638 1.423-1.424 0-.787-.637-1.424-1.423-1.424z" fill="#fff"/><path d="m537.836 68.0801h-23.452c-.881 0-1.598.7166-1.598 1.5981v17.0532c0 .8815.717 1.5981 1.598 1.5981h23.449c.885 0 1.598-.7166 1.598-1.5981v-17.0532c.004-.8815-.713-1.5981-1.595-1.5981z" fill="#c7ccd3"/><path d="m535.959 69.1465h-19.698c-.742 0-1.344.6025-1.344 1.3445v14.3261c0 .742.602 1.3445 1.344 1.3445h19.698c.742 0 1.341-.6025 1.341-1.3445v-14.3261c.004-.742-.599-1.3445-1.341-1.3445z" fill="#fff"/><path d="m537.836 68.0801h-23.452c-.881 0-1.598.7166-1.598 1.5981v3.4627h26.649v-3.4627c0-.8815-.717-1.5981-1.599-1.5981z" fill="#c7ccd3"/><path d="m532.107 69.6797c-.514 0-.933.4185-.933.9322s.419.9323.933.9323c.513 0 .932-.4186.932-.9323s-.419-.9322-.932-.9322z" fill="#40516c"/><path d="m534.77 69.6797c-.514 0-.932.4185-.932.9322s.418.9323.932.9323.932-.4186.932-.9323-.415-.9322-.932-.9322z" fill="#7d899a"/><path d="m537.437 69.6797c-.514 0-.932.4185-.932.9322s.418.9323.932.9323.932-.4186.932-.9323-.418-.9322-.932-.9322z" fill="#c7ccd3"/><path d="m529.44 69.6797h-4.665-4.264-4.665c-.514 0-.932.4185-.932.9322s.418.9323.932.9323h4.665 4.264 4.665c.517 0 .932-.4186.932-.9323.003-.5137-.415-.9322-.932-.9322z" fill="#fff"/><path d="m528.606 75.3965c-.793 0-1.535.3076-2.096.8688l-.174.1744-.175-.1744c-.558-.5581-1.303-.8688-2.096-.8688s-1.535.3076-2.096.8688c-.558.5581-.869 1.3033-.869 2.096s.308 1.5347.869 2.096c.799.799 1.722 1.5252 2.613 2.2291.444.3488.862.6818 1.265 1.0179l.485.4059.486-.4059c.405-.3393.824-.6691 1.265-1.0179.891-.7039 1.813-1.4332 2.613-2.2291.558-.5581.868-1.3033.868-2.096s-.307-1.5347-.868-2.096c-.555-.5612-1.297-.8688-2.09-.8688z" fill="#ff3273"/><path d="m510.189 161.758h-14.339c-.862 0-1.563.701-1.563 1.563v10.426c0 .863.701 1.563 1.563 1.563h1.579l-.012 3.412c.304.305.799.305 1.106 0l3.412-3.412h8.254c.863 0 1.564-.7 1.564-1.563v-10.426c0-.862-.701-1.563-1.564-1.563z" fill="#ecedef"/><path d="m518.789 170.624h-14.339c-.863 0-1.563.701-1.563 1.563v10.426c0 .866.7 1.564 1.563 1.564h8.254l3.412 3.411c.307.305.799.305 1.106 0l-.015-3.411h1.579c.862 0 1.563-.701 1.563-1.564v-10.426c.006-.862-.695-1.563-1.56-1.563z" fill="#66d6c0"/><path d="m507.424 176.447c-.792.015-1.42.669-1.404 1.461.015.793.669 1.421 1.461 1.405.793-.016 1.421-.669 1.405-1.462-.016-.792-.672-1.42-1.462-1.404z" fill="#fff"/><path d="m511.854 176.358c-.793.015-1.421.669-1.405 1.461.016.793.669 1.421 1.462 1.405s1.421-.669 1.405-1.462c-.016-.789-.669-1.417-1.462-1.404z" fill="#fff"/><path d="m516.284 176.272c-.793.016-1.421.669-1.405 1.461.016.793.669 1.421 1.462 1.405s1.42-.669 1.405-1.462c-.013-.789-.67-1.417-1.462-1.404z" fill="#fff"/><path d="m445.078 186.935v4.331 8.124c0 1.795 1.395 3.25 3.113 3.25h19.72c1.719 0 3.114-1.455 3.114-3.25v-8.124-4.331-.542h-25.947z" fill="#ffcb50"/><path d="m456.883 191.099-11.346 9.979c.546.935 1.532 1.56 2.658 1.56h19.72c1.189 0 2.226-.698 2.749-1.722l-11.162-9.817c-.726-.634-1.896-.634-2.619 0z" fill="#f0ba3d"/><path d="m457.054 191.946-11.07 9.735c.565.59 1.345.957 2.207.957h19.72c.92 0 1.748-.418 2.318-1.084l-10.927-9.608c-.621-.545-1.626-.545-2.248 0z" fill="#ffcb50"/><path d="m457.055 175.971-11.85 10.422 11.85 10.423c.622.546 1.627.546 2.248 0l11.85-10.423-11.85-10.422c-.621-.546-1.626-.546-2.248 0z" fill="#f0ba3d"/><path d="m449.488 190.161 7.566 6.653c.622.545 1.627.545 2.248 0l7.573-6.659v-10.043h-17.383v10.049z" fill="#fff"/><path d="m464.525 183.889h-12.7v1.084h12.7z" fill="#ecedef"/><path d="m464.525 186.055h-12.7v1.084h12.7z" fill="#ecedef"/><path d="m452.992 188.221h-1.167v1.081h1.167 3.374 1.167v-1.081h-1.167z" fill="#ecedef"/><path d="m390.647 114.415h-16.447c-.923 0-1.671.748-1.671 1.671v22.58c0 .923.748 1.671 1.671 1.671h16.447c.923 0 1.671-.748 1.671-1.671v-22.58c0-.923-.748-1.671-1.671-1.671z" fill="#02193c"/><path d="m390.647 115.253h-16.447c-.923 0-1.671.748-1.671 1.671v22.58c0 .923.748 1.671 1.671 1.671h16.447c.923 0 1.671-.748 1.671-1.671v-22.58c0-.923-.748-1.671-1.671-1.671z" fill="#02193c"/><path d="m388.697 116.366h-12.544c-.923 0-1.671.749-1.671 1.674v3.067c0 .922.748 1.671 1.671 1.671h12.544c.923 0 1.671-.749 1.671-1.671v-3.067c0-.922-.748-1.674-1.671-1.674z" fill="#7d899a"/><path d="m388.697 116.366h-12.544c-.923 0-1.671.749-1.671 1.674v1.675c0-.923.748-1.675 1.671-1.675h12.544c.923 0 1.671.749 1.671 1.675v-1.675c0-.922-.748-1.674-1.671-1.674z" fill="#c7ccd3"/><path d="m383.678 138.946h-2.508c-.308 0-.559.251-.559.558 0 .308.251.558.559.558h2.508c.307 0 .558-.25.558-.558 0-.307-.251-.558-.558-.558z" fill="#7d899a"/><path d="m388.697 116.366h-12.544c-.923 0-1.671.749-1.671 1.674v2.23.837 14.215.837c0 .923.748 1.671 1.671 1.671h12.544c.923 0 1.671-.748 1.671-1.671v-.837-14.215-.837-2.23c0-.922-.748-1.674-1.671-1.674z" fill="#c7ccd3"/><path d="m386.855 131.932c-.304-.641-2.175-2.271-2.603-2.248-.428.022-1.034.605-1.43.745-.39.136-.606-.007-.841-.381l-2.178-3.833c-.2-.39-.213-.654.104-.917.324-.269 1.136-.491 1.373-.846.241-.359-.202-2.797-.596-3.387-.228-.339-.624-.146-.624-.146-.321.083-.634.209-.933.377l-.399.229c-1.842 1.046-2.489 3.39-1.443 5.235l2.93 5.156c1.046 1.842 3.39 2.489 5.232 1.443l.4-.229c.196-.111.377-.237.545-.377l.273-.206c-.003-.003.364-.244.19-.615z" fill="#7d899a"/><path d="m542.482 140.967h-7.391v1.848h7.391c1.021 0 1.849-.827 1.849-1.848v-3.387h-1.849z" fill="#ecedef"/><path d="m541.559 140.967h.923v-.923c0 .51-.412.923-.923.923z" fill="#c7ccd3"/><path d="m544.33 137.58h-1.848v1.23h1.848z" fill="#ecedef"/><path d="m533.473 113.021c-6.123 0-11.085 4.04-11.085 10.163v3.847h1.848v-3.847c0-5.092 4.145-8.314 9.24-8.314 5.096 0 9.241 3.222 9.241 8.314v3.847h1.848v-3.847c-.006-6.123-4.969-10.163-11.092-10.163z" fill="#ecedef"/><path d="m542.618 121.875c.06.428.095.866.095 1.31v3.846h1.849v-3.846c0-.444-.029-.882-.079-1.31z" fill="#ecedef"/><path d="m522.388 123.186v3.846h1.848v-3.846c0-.444.035-.882.096-1.31h-1.862c-.054.431-.082.866-.082 1.31z" fill="#ecedef"/><path d="m520.958 133.729c1.7-.02 3.062-1.415 3.042-3.115-.02-1.701-1.415-3.062-3.115-3.042-1.701.02-3.063 1.415-3.043 3.115.021 1.7 1.415 3.062 3.116 3.042z" fill="#40516c"/><path d="m524.519 123.725h-2.258c-1.246 0-2.258 1.011-2.258 2.257v9.342c0 1.246 1.012 2.258 2.258 2.258h2.258c1.246 0 2.257-1.012 2.257-2.258v-9.342c0-1.246-1.011-2.257-2.257-2.257z" fill="#02193c"/><path d="m524.519 123.725h-1.129v13.857h1.129c1.246 0 2.257-1.012 2.257-2.258v-9.342c0-1.246-1.011-2.257-2.257-2.257z" fill="#40516c"/><path d="m545.561 127.575c-1.7 0-3.079 1.38-3.079 3.079 0 1.7 1.379 3.079 3.079 3.079 1.699 0 3.079-1.379 3.079-3.079 0-1.703-1.376-3.079-3.079-3.079z" fill="#40516c"/><path d="m544.226 123.725h-2.258c-1.246 0-2.257 1.011-2.257 2.257v9.342c0 1.246 1.011 2.258 2.257 2.258h2.258c1.246 0 2.258-1.012 2.258-2.258v-9.342c.003-1.246-1.009-2.257-2.258-2.257z" fill="#02193c"/><path d="m539.711 125.982v9.342c0 1.246 1.011 2.258 2.257 2.258h1.129v-13.857h-1.129c-1.246 0-2.257 1.011-2.257 2.257z" fill="#40516c"/><path d="m536.324 139.736h-3.079c-1.021 0-1.849.828-1.849 1.849v.308c0 1.021.828 1.848 1.849 1.848h3.079c1.021 0 1.849-.827 1.849-1.848v-.308c0-1.021-.828-1.849-1.849-1.849z" fill="#02193c"/><path d="m491.988 30.916h-16.983c-.866 0-1.57.7008-1.57 1.5664v.2601 20.1194.26c0 .8657.701 1.5696 1.57 1.5696h16.983c.866 0 1.567-.7007 1.567-1.5696v-.26-20.1163-.26c.003-.8656-.698-1.5696-1.567-1.5696z" fill="#02193c"/><path d="m491.468 32.4854h-.263-14.371-.26c-.431 0-.783.3519-.783.7832v19.3362c0 .4313.352.7832.783.7832h.26 14.371.26c.431 0 .783-.3519.783-.7832v-19.3362c.003-.4344-.349-.7832-.78-.7832z" fill="#02193c"/><path d="m490.422 32.4863h-.26-13.328-.26c-.431 0-.783.352-.783.7832v18.2931c0 .4312.352.7832.783.7832h.26 13.328.26c.431 0 .783-.352.783-.7832v-18.2931c0-.4344-.352-.7832-.783-.7832z" fill="#fff"/><path d="m489.074 36.335h-8.159v1.0464h8.159z" fill="#66d6c0"/><path d="m489.074 40.0654h-8.159v1.0464h8.159z" fill="#02193c" opacity=".16"/><path d="m488.855 33.0049v-.9449c0-1.0654-.856-1.9311-1.909-1.9311h-7.156c-1.056 0-1.909.8625-1.909 1.9311v.9449z" fill="#c7ccd3"/><path d="m481.014 31.1792v-.6817c0-.631.504-1.1447 1.125-1.1447h2.451c.622 0 1.126.5137 1.126 1.1447v.6817h.783v-.6817c0-1.0654-.856-1.9311-1.912-1.9311h-2.451c-1.056 0-1.909.8625-1.909 1.9311v.6817z" fill="#c7ccd3"/><path d="m489.074 43.7197h-8.159v1.0464h8.159z" fill="#02193c" opacity=".16"/><path d="m479.863 37.163c-.222.8784-1.117 1.4111-1.995 1.1891s-1.411-1.1162-1.189-1.9945 1.116-1.4111 1.995-1.1891c.878.222 1.411 1.1162 1.189 1.9945z" fill="#66d6c0"/><path clip-rule="evenodd" d="m478.033 37.7016c-.073 0-.149-.0286-.206-.0825l-.618-.5676c-.127-.1173-.137-.3139-.016-.4439.117-.1268.317-.1332.444-.0159l.387.3615.757-.8022c.121-.1269.317-.1332.444-.0127s.13.3203.013.4439l-.973 1.0274c-.061.0603-.146.092-.232.092z" fill="#fff" fill-rule="evenodd"/><path d="m479.485 40.9372c-.171.6722-.85 1.0781-1.522.9069s-1.078-.8498-.907-1.5221c.172-.6722.85-1.0781 1.522-.9068.669.1712 1.075.8529.907 1.522z" fill="#02193c" opacity=".064"/><path d="m479.485 44.6599c-.171.6722-.85 1.0781-1.522.9068-.672-.1712-1.078-.8498-.907-1.522.172-.6722.85-1.0781 1.522-.9069.669.1712 1.075.853.907 1.5221z" fill="#02193c" opacity=".064"/><path d="m479.485 48.3815c-.171.6723-.85 1.0781-1.522.9069s-1.078-.8498-.907-1.522c.172-.6723.85-1.0781 1.522-.9069.669.1712 1.075.853.907 1.522z" fill="#02193c" opacity=".064"/><path d="m489.074 47.6396h-8.159v1.0465h8.159z" fill="#02193c" opacity=".16"/><g mask="url(#b)"><path d="m450.617 88.7754c-.39.2918-4.499 3.2597-5.479 7.3439-.431 1.7947.739 10.6827.818 12.5917.041.999 1.046-.371 1.687.292-.114-1.161 8.374-8.822 10.068-9.2181 1.179-.2759 9.471 5.5431 9.395 6.8051-.054.888.216 1.525.14 2.413.063.035.123.066.183.095.235-.603 1.443-.733 1.58-1.364.304-1.423.241-6.732-.162-9.319-.657-7.1948-4.547-8.0541-8.524-8.2126-9.918-.4091-8.399-2.4099-9.706-1.427z" fill="#02193c"/><path d="m470.47 107.747c-.13-.444-.532-1.062-.884-1.11-.362-.054-.885.422-1.193.787-.326.39-.482.922-.811 1.595-.019-.432-.016-.612-.038-.796-.336-2.917-.685-5.828-1.006-8.7456-.085-.8023-.494-1.2589-1.262-1.3223-.967-.0793-1.95-.1712-2.91-.0856-1.697.1554-3.168.9671-4.655 1.7155-.216.1078-.425.2124-.638.311-2.118 1.014-4.258 1.24-6.453.241-.589-.27-1.201-.4981-1.988-.8247-.402 3.0157-.792 5.9297-1.192 8.9107-.206-.378-.346-.822-.637-1.104-.302-.292-.755-.58-1.135-.577-.251.003-.635.498-.723.831-.444 1.737-.197 3.405.792 4.918.194.292 1.636 1.078 1.751 1.306.488.967.7 1.852 1.179 2.829.333.678.663 1.36.993 2.042.035.073.073.149.107.222.089.196.197.475.305.815h15.702c.083-.368.159-.654.219-.818.054-.149 1.376-2.014 1.957-5.175.038-.219.669-.365.83-.52.397-.378.955-.657 1.193-1.113.704-1.358.941-2.838.497-4.332z" fill="#e9b49e"/><path d="m465.223 126.993c-.463-.723-.01-4.408.409-6.605h-15.363c.608 2.254 1.186 5.958.352 7.077-.197.267-2.616 1.145-3.247 1.947l16.926 3.65c-1.17-.78 2.023-4.338.923-6.069z" fill="#e9b49e"/><path d="m465.391 126.884c-.422-.656-.038-5.007.38-7.182l-15.75-.434c.603 2.203 1.224 7.02.441 8.076-.07.073-.488.276-.856.453-.831.4-1.966.952-2.394 1.491l-.2.253 18.252 3.935-.86-.58c-.415-.279-.003-1.237.435-2.248.555-1.291 1.189-2.762.552-3.764z" fill="#f3ba95"/><path d="m466.196 124.291c-2.172 2.036-5.073 3.295-8.225 3.295-3.193 0-6.13-1.294-8.308-3.374-8.809 1.56-15.084 5.609-15.084 10.356 0 6.101 10.356 11.048 23.135 11.048 12.775 0 23.135-4.947 23.135-11.048-.003-4.671-6.073-8.66-14.653-10.277z" fill="#c7ccd3"/><path d="m470.661 107.695c-.143-.485-.584-1.183-1.047-1.253-.025-.006-.054-.006-.085-.006-.524 0-1.117.66-1.288.862-.209.251-.352.549-.501.891-.101-.9-.209-1.797-.314-2.692-.231-1.975-.472-4.024-.691-6.0371-.095-.91-.599-1.4269-1.443-1.4966l-.19-.0159c-.628-.0539-1.275-.1046-1.909-.1046-.301 0-.577.0127-.843.0349-1.592.1395-2.994.8529-4.351 1.541l-.377.1903c-.209.1078-.422.2124-.638.3139-1.217.5831-2.356.8661-3.478.8661-.948 0-1.89-.213-2.806-.628-.397-.181-.796-.3427-1.256-.5298-.228-.092-.476-.1903-.739-.2981l-.238-.0983-1.138 8.5142c-.105-.206-.225-.409-.39-.568-.317-.307-.818-.637-1.278-.637-.38.006-.812.599-.913.983-.466 1.826-.19 3.535.818 5.073.114.171.447.4.989.752.279.18.695.453.749.532.247.492.421.952.602 1.44.168.444.343.907.574 1.392.222.447.438.894.656 1.348-.12-.003 1.437 2.695 2.648 3.615 2.213 1.671 4.135 3.091 6.491 3.091 2.087 0 4.236-1.125 5.835-2.571 2.321-2.112 2.517-3.587 3.072-5.217.431-1.021.752-2.096.955-3.215.038-.057.26-.152.377-.206.168-.07.311-.136.399-.219.127-.117.273-.231.429-.349.31-.234.627-.478.805-.815.777-1.506.951-3.015.514-4.483z" fill="#f3ba95"/></g><path d="m377.569 69.0885-.698 1.4142-1.56.2283c-.279.0412-.393.3837-.19.5835l1.129 1.1003-.267 1.5537c-.047.2822.248.4915.495.3583l1.395-.7325 1.396.7325c.247.13.542-.0792.494-.3583l-.266-1.5537 1.129-1.1003c.203-.1966.092-.5423-.191-.5835l-1.56-.2283-.697-1.4142c-.121-.2505-.482-.2537-.609 0z" fill="#ffcb50"/><path d="m384.773 69.0885-.697 1.4142-1.56.2283c-.28.0412-.394.3837-.191.5835l1.129 1.1003-.266 1.5537c-.048.2822.247.4915.494.3583l1.396-.7325 1.395.7325c.247.13.542-.0792.494-.3583l-.266-1.5537 1.129-1.1003c.203-.1966.092-.5423-.19-.5835l-1.56-.2283-.698-1.4142c-.12-.2505-.482-.2537-.609 0z" fill="#ffcb50"/><path d="m391.974 69.0885-.697 1.4142-1.56.2283c-.279.0412-.394.3837-.191.5835l1.129 1.1003-.266 1.5537c-.048.2822.247.4915.495.3583l1.395-.7325 1.395.7325c.247.13.542-.0792.495-.3583l-.267-1.5537 1.129-1.1003c.203-.1966.092-.5423-.19-.5835l-1.56-.2283-.698-1.4142c-.12-.2505-.482-.2537-.609 0z" fill="#ffcb50"/><path d="m393.29 88.9191c-.602-.3108-1.122-1.0179-1.122-1.0179l-2.493-3.989 1.691-5.5079s1.595.0634 1.423 1.9565c-.171 1.893-.52 3.6433-.52 3.6433l2.429 2.318s.165.1427.324.3995c.304.4947.65 1.3413.193 1.9153-.77.9671-1.57.4661-1.925.2822z" fill="#f3ba95"/><path d="m401.357 86.7084c-.022.6817-.596 1.2176-1.281 1.1954-.682-.0222-1.218-.5961-1.192-1.281l.26-7.4834c.025-.6817.596-1.2176 1.281-1.1922.682.0222 1.217.5961 1.195 1.281z" fill="#f3ba95"/><path d="m399.239 82.728.403-4.5376c-.292.2157-.486.5581-.498.9481l-.254 4.2649c.063-.1332.336-.52.349-.6754z" fill="#de9c76"/><path d="m392.168 82.4756-.127 3.6243c-.089 2.5748 1.925 4.7342 4.5 4.823 2.574.0888 4.734-1.9247 4.822-4.4995l.127-3.6244z" fill="#f3ba95"/><path d="m399.172 85.6909c-.022.6817-.596 1.2176-1.281 1.1954-.681-.0222-1.217-.5961-1.195-1.2811l.26-7.4833c.022-.6818.596-1.2176 1.281-1.1955.685.0222 1.218.5962 1.195 1.2811z" fill="#f3ba95"/><path d="m396.823 81.9485.634-4.7786c-.289.2156-.482.5581-.498.9481l-.254 4.2649c.064-.1332.105-.279.118-.4344z" fill="#de9c76"/><path d="m396.965 84.6098c-.022.6817-.596 1.2176-1.281 1.1954-.681-.0222-1.217-.5961-1.192-1.281l.26-7.4834c.022-.6817.596-1.2176 1.281-1.1954.682.0222 1.218.5961 1.196 1.281z" fill="#f3ba95"/><path d="m394.616 80.8674.634-4.7785c-.292.2156-.485.558-.498.9481l-.254 4.2648c.064-.13.105-.279.118-.4344z" fill="#de9c76"/><path d="m392.269 84.0041s.349-1.7504.52-3.6434c.092-1.0115-.323-1.503-.726-1.7377l.178 7.0553c.016.685.605.3457 1.29.3298.47-.0127.206-.8022.406-1.1954z" fill="#de9c76"/><path d="m394.536 85.6084c-.022.6818-.596 1.2177-1.281 1.1955-.685-.0254-1.217-.5962-1.192-1.2811l.45-12.9595c.026-.6818.597-1.2176 1.281-1.1954.682.0253 1.218.5961 1.196 1.281z" fill="#f3ba95"/><path d="m401.294 88.7695h-9.177v3.1741h9.177z" fill="#fff"/><path d="m401.725 89.4043h-9.849v3.1741h9.849z" fill="#c7ccd3"/></g><path d="m90.9699 197.671-4.5201 4.054 6.1588 6.866 4.52-4.054z" fill="#7d899a"/><path d="m85.1994 200.374-38.3343 34.242c-1.1162 1.178-1.7477 2.734-1.769 4.357-.0212 1.623.5695 3.194 1.6544 4.402 1.085 1.207 2.5848 1.962 4.2009 2.113 1.6161.152 3.2301-.31 4.5208-1.295l38.4055-34.272z" fill="#40516c"/><path d="m93.9783 193.305-3.8661 3.467 7.7804 8.675 3.8664-3.467z" fill="#40516c"/><path d="m128.963 197.596c3.038-2.735 5.196-6.31 6.203-10.272 1.006-3.962.815-8.134-.549-11.987-1.364-3.854-3.841-7.216-7.116-9.662-3.275-2.447-7.202-3.867-11.285-4.081-4.082-.215-8.136.786-11.65 2.876-3.513 2.09-6.3283 5.174-8.0888 8.864-1.7605 3.689-2.3874 7.818-1.8015 11.864.5859 4.045 2.3583 7.827 5.0931 10.865 1.8162 2.018 4.0122 3.658 6.4622 4.827s5.106 1.844 7.817 1.987c2.711.142 5.424-.251 7.983-1.157s4.914-2.307 6.932-4.124z" fill="#ecedef" opacity=".2"/><path d="m133.525 165.699c-3.229-3.678-7.478-6.313-12.208-7.57s-9.727-1.078-14.355.512c-4.629 1.591-8.6796 4.522-11.6379 8.421-2.9582 3.898-4.6903 8.589-4.9759 13.474-.2857 4.886.888 9.746 3.3719 13.963 2.4838 4.217 6.1655 7.6 10.5769 9.719 4.412 2.119 9.354 2.879 14.198 2.182s9.371-2.819 13.007-6.096c4.849-4.325 7.785-10.397 8.164-16.884s-1.829-12.86-6.141-17.721zm-33.7866 30.294c-2.7391-3.038-4.515-6.821-5.103-10.869-.5879-4.048.0386-8.18 1.8002-11.872 1.7617-3.692 4.5794-6.778 8.0954-8.868 3.517-2.09 7.575-3.089 11.66-2.871 4.085.217 8.013 1.642 11.288 4.094s5.748 5.82 7.107 9.678c1.359 3.859 1.543 8.034.528 11.996-1.015 3.963-3.183 7.536-6.229 10.266-4.075 3.651-9.431 5.538-14.894 5.247-5.464-.291-10.589-2.737-14.2526-6.801z" fill="#7d899a"/><path d="m319.889 144.229h-152.68c-4.949 0-8.96 4.012-8.96 8.96v97.198c0 4.948 4.011 8.96 8.96 8.96h152.68c4.948 0 8.96-4.012 8.96-8.96v-97.198c0-4.948-4.012-8.96-8.96-8.96z" fill="#c7ccd3"/><path d="m167.063 143.038h154.404c1.485-.025 2.938-.437 4.216-1.195 1.277-.758 2.335-1.836 3.069-3.127 2.913-4.638 23.261-42.7348 23.261-42.7348s4.128-8.0857-7.066-8.0857h-204.957s-7.285 1.3598-3.424 7.7457c3.861 6.3858 22.727 42.9048 22.727 42.9048.828 1.329 1.969 2.433 3.324 3.217 1.355.783 2.882 1.221 4.446 1.275z" fill="#7d899a"/><path d="m255.617 225.399h-39.457c-1.905 0-3.448 1.544-3.448 3.448v17.92c0 1.904 1.543 3.448 3.448 3.448h39.457c1.904 0 3.448-1.544 3.448-3.448v-17.92c0-1.904-1.544-3.448-3.448-3.448z" fill="#ecedef"/><path d="m321.103 157.144h-154.744v56.866h154.744z" fill="#ecedef"/><g fill="#7d899a"><path d="m261.833 202.988h-51.501v8.62h51.501z"/><path d="m271.642 202.988h-7.575v8.62h7.575z"/><path d="m288.008 202.988h-14.812v8.62h14.812z"/><path d="m298.667 202.988h-8.935v8.62h8.935z"/><path d="m307.748 202.988h-7.794v8.62h7.794z"/><path d="m318.894 202.988h-9.737v8.62h9.737z"/><path d="m179.568 202.988h-9.591v8.62h9.591z"/><path d="m188.018 193.641h-18.041v7.672h18.041z"/><path d="m190.203 202.988h-8.935v8.62h8.935z"/><path d="m199.284 202.988h-7.794v8.62h7.794z"/><path d="m208.487 202.988h-7.794v8.62h7.794z"/><path d="m182.045 174.238h-12.068v7.916h12.068z"/><path d="m183.064 184.146h-13.087v7.212h13.087z"/><path d="m231.238 193.641h-7.527v7.672h7.527z"/><path d="m222.667 193.641h-7.551v7.672h7.551z"/><path d="m214.047 193.641h-7.527v7.672h7.527z"/><path d="m205.452 193.641h-7.527v7.672h7.527z"/><path d="m196.856 193.641h-7.527v7.672h7.527z"/><path d="m265.621 193.641h-7.528v7.672h7.528z"/><path d="m257.025 193.641h-7.527v7.672h7.527z"/><path d="m248.429 193.641h-7.527v7.672h7.527z"/><path d="m239.834 193.641h-7.527v7.672h7.527z"/><path d="m300.003 193.641h-7.527v7.672h7.527z"/><path d="m291.407 193.641h-7.527v7.672h7.527z"/><path d="m282.812 193.641h-7.528v7.672h7.528z"/><path d="m274.216 193.641h-7.527v7.672h7.527z"/><path d="m265.621 193.641h-7.528v7.672h7.528z"/><path d="m318.869 193.641h-17.798v7.672h17.798z"/><path d="m318.893 184.146h-16.317v7.212h16.317z"/><path d="m318.894 174.238h-9.737v7.916h9.737z"/><path d="m318.894 165.255h-14.885v7.236h14.885z"/><path d="m300.003 193.641h-7.527v7.672h7.527z"/><path d="m228.859 184.146h-7.964v7.212h7.964z"/><path d="m219.753 184.146h-7.964v7.212h7.964z"/><path d="m210.672 184.146h-7.988v7.212h7.988z"/><path d="m201.542 184.146h-7.964v7.212h7.964z"/><path d="m192.461 184.146h-7.964v7.212h7.964z"/><path d="m265.256 184.146h-7.964v7.212h7.964z"/><path d="m256.151 184.146h-7.964v7.212h7.964z"/><path d="m247.07 184.146h-7.989v7.212h7.989z"/><path d="m237.94 184.146h-7.964v7.212h7.964z"/><path d="m301.678 184.146h-7.988v7.212h7.988z"/><path d="m292.573 184.146h-7.989v7.212h7.989z"/><path d="m283.443 184.146h-7.964v7.212h7.964z"/><path d="m274.362 184.146h-7.965v7.212h7.965z"/><path d="m265.256 184.146h-7.964v7.212h7.964z"/><path d="m301.678 184.146h-7.988v7.212h7.988z"/><path d="m227.912 174.238h-7.964v7.916h7.964z"/><path d="m218.806 174.238h-7.964v7.916h7.964z"/><path d="m209.701 174.238h-7.964v7.916h7.964z"/><path d="m200.62 174.238h-7.965v7.916h7.965z"/><path d="m191.514 174.238h-7.964v7.916h7.964z"/><path d="m264.309 174.238h-7.964v7.916h7.964z"/><path d="m255.204 174.238h-7.964v7.916h7.964z"/><path d="m246.123 174.238h-7.964v7.916h7.964z"/><path d="m237.042 174.238h-7.989v7.916h7.989z"/><path d="m300.731 174.238h-7.988v7.916h7.988z"/><path d="m291.601 174.238h-7.964v7.916h7.964z"/><path d="m282.52 174.238h-7.964v7.916h7.964z"/><path d="m273.415 174.238h-7.964v7.916h7.964z"/><path d="m264.309 174.238h-7.964v7.916h7.964z"/><path d="m300.731 174.238h-7.988v7.916h7.988z"/><path d="m308.452 174.238h-6.798v7.916h6.798z"/><path d="m222.764 165.255h-7.964v7.236h7.964z"/><path d="m213.707 165.255h-7.988v7.236h7.988z"/><path d="m204.578 165.255h-7.965v7.236h7.965z"/><path d="m195.496 165.255h-7.988v7.236h7.988z"/><path d="m186.391 165.255h-7.964v7.236h7.964z"/><path d="m259.162 165.255h-7.965v7.236h7.965z"/><path d="m250.081 165.255h-7.965v7.236h7.965z"/><path d="m240.975 165.255h-7.964v7.236h7.964z"/><path d="m231.87 165.255h-7.965v7.236h7.965z"/><path d="m295.583 165.255h-7.964v7.236h7.964z"/><path d="m286.478 165.255h-7.964v7.236h7.964z"/><path d="m277.373 165.255h-7.965v7.236h7.965z"/><path d="m268.291 165.255h-7.988v7.236h7.988z"/><path d="m259.162 165.255h-7.965v7.236h7.965z"/><path d="m295.583 165.255h-7.964v7.236h7.964z"/><path d="m303.329 165.255h-6.799v7.236h6.799z"/><path d="m177.747 165.255h-7.77v7.236h7.77z"/><path d="m177.747 158.312h-7.77v4.614h7.77z"/><path d="m186.731 158.312h-7.746v4.613h7.746z"/><path d="m195.764 158.312h-7.746v4.613h7.746z"/><path d="m204.796 158.312h-7.77v4.613h7.77z"/><path d="m213.804 158.312h-7.745v4.613h7.745z"/><path d="m222.813 158.312h-7.746v4.613h7.746z"/><path d="m231.845 158.312h-7.745v4.613h7.745z"/><path d="m240.854 158.312h-7.746v4.613h7.746z"/><path d="m249.911 158.312h-7.77v4.613h7.77z"/><path d="m258.919 158.312h-7.77v4.613h7.77z"/><path d="m267.927 158.312h-7.746v4.613h7.746z"/><path d="m276.936 158.312h-7.746v4.613h7.746z"/><path d="m285.993 158.312h-7.77v4.613h7.77z"/><path d="m294.976 158.312h-7.745v4.613h7.745z"/><path d="m304.009 158.312h-7.746v4.613h7.746z"/><path d="m313.042 158.312h-7.77v4.613h7.77z"/><path d="m318.893 158.312h-4.589v4.613h4.589z"/></g><path d="m142.418 95.6406h202.991l-21.538 39.5294c-1.955 1.452-4.294 2.297-6.726 2.429h-147.168c-1.063-.04-2.106-.308-3.057-.786-.951-.477-1.788-1.153-2.455-1.983-1.53-2.5-22.047-39.1894-22.047-39.1894z" fill="#ecedef"/><path d="m181.049 134.441 9.373-2.307 5.609 1.36 5.511-.437 6.071-3.157 5.924 1.481 5.366-1.092 5.925.777 11.437-1.19 5.827 1.335 5.706-3.399h11.582l5.609-6.022 5.755 3.812 5.123-.777 6.338-2.428 5.876.874 5.414-1.311 5.974 2.987 5.147-1.481 6.046-.874 15.127-5.925-9.421 17.652z" fill="#ff3273"/><path d="m314.013 115.236-13.598-.025-9.372-2.306-5.609 1.384-5.536-.462-6.07-3.156-5.901 1.457-5.39-1.093-5.901.801-11.46-1.19-5.828 1.336-5.682-3.375-11.606-.024-5.585-6.022-5.754 3.812-5.124-.801-6.337-2.404-5.876.898-5.415-1.335-5.997 2.986-5.124-1.481-6.046-.874-15.127-5.9245 9.397 17.6525z" fill="#66d6c0"/><path d="m263.435 209.349s.874 0 1.53-1.821c.237-.54.36-1.123.36-1.712s-.123-1.172-.36-1.712c-.116-.496-.399-.938-.801-1.251-.402-.314-.899-.481-1.409-.473 0 0 1.554.559 1.773 1.287.223.661.37 1.345.437 2.04.123.576.123 1.172 0 1.748-.183.403-.42.778-.704 1.117-.559.437-.826.777-.826.777z" fill="#d7d7d7" opacity=".14"/><path d="m263.435 209.349s.898 0 1.554-1.845c.237-.535.359-1.114.359-1.7 0-.585-.122-1.164-.359-1.699-.111-.497-.387-.941-.785-1.259-.397-.318-.891-.491-1.4-.49 0 0 1.554.559 1.772 1.312.243.645.383 1.326.413 2.015.123.584.123 1.188 0 1.773-.175.414-.412.799-.704 1.141z" fill="#bbb" opacity=".29"/><path d="m263.435 209.349s.899 0 1.554-1.845c.236-.531.359-1.106.359-1.688 0-.581-.123-1.156-.359-1.687-.132-.494-.417-.934-.814-1.257-.396-.322-.885-.511-1.395-.54 0 0 1.578.583 1.821 1.336.228.649.358 1.328.388 2.015.109.586.109 1.187 0 1.772-.165.421-.395.814-.68 1.166-.461.437-.874.728-.874.728z" fill="#a0a0a0" opacity=".43"/><path d="m263.556 209.351s.923 0 1.579-1.87c.242-.525.367-1.097.367-1.675s-.125-1.15-.367-1.675c-.127-.495-.406-.937-.798-1.264-.393-.327-.878-.522-1.388-.557 0 0 1.579.607 1.822 1.335.246.652.369 1.343.364 2.04.108.585.108 1.186 0 1.772-.147.432-.369.835-.656 1.19-.281.267-.591.503-.923.704z" fill="#858585" opacity=".57"/><path d="m263.581 209.351s.947-.121 1.602-1.894c.243-.516.369-1.08.369-1.651s-.126-1.134-.369-1.651c-.122-.499-.399-.947-.792-1.279-.392-.331-.88-.53-1.393-.566 0 0 1.603.607 1.87 1.335.36 1.237.443 2.539.243 3.812-.254.78-.768 1.449-1.457 1.894z" fill="#6a6a6a" opacity=".71"/><path d="m263.605 209.325s.996 0 1.651-1.87c.24-.517.364-1.081.364-1.651s-.124-1.134-.364-1.651c-.093-.511-.359-.975-.751-1.315-.393-.34-.891-.536-1.41-.555 0 0 1.603.607 1.894 1.336.231.662.33 1.363.292 2.064.097.595.097 1.201 0 1.796-.127.448-.351.863-.656 1.214-.289.284-.637.5-1.02.632z" fill="#4e4e4e" opacity=".86"/><path d="m263.654 209.325s.971 0 1.651-1.894c.24-.509.364-1.065.364-1.627 0-.563-.124-1.118-.364-1.627-.107-.509-.375-.97-.764-1.316-.389-.345-.879-.556-1.397-.602 0 0 1.627.631 1.918 1.36.231.653.33 1.347.291 2.039.058.61.017 1.225-.121 1.821-.101.46-.318.887-.631 1.239-.264.273-.588.481-.947.607z" fill="#333"/><path d="m294.662 172.203c.236 1.199.309 2.424.218 3.642-.086.269-.238.511-.441.706-.204.195-.452.336-.724.411-.606.217-1.253.3-1.894.243-.826 0-1.141-.267-1.408-.656-.256-.457-.421-.96-.486-1.481-.176-.693-.176-1.419 0-2.112v1.432s0 1.652.729 2.186c.293.215.63.361.987.429.358.067.725.053 1.076-.041.645-.084 1.238-.393 1.676-.874.301-.485.421-1.061.34-1.627.073-.752-.073-2.258-.073-2.258z" fill="#d6d6d6" opacity=".2"/><path d="m294.686 172.227c.224 1.192.289 2.408.194 3.617-.092.268-.246.511-.448.709s-.448.346-.718.433c-.606.218-1.252.301-1.894.243-.269.008-.537-.047-.782-.161-.244-.114-.459-.283-.626-.495-.258-.465-.423-.977-.485-1.506-.175-.693-.175-1.419 0-2.112v1.287s0 1.821.752 2.428c.295.211.634.353.991.416s.724.046 1.073-.052c.326-.02.645-.105.937-.251.292-.147.551-.35.763-.599.298-.495.41-1.08.315-1.651.073-.801-.072-2.306-.072-2.306z" fill="#adadad" opacity=".4"/><path d="m294.686 172.252c.225 1.192.29 2.409.194 3.618-.087.268-.238.511-.442.706-.203.194-.452.336-.724.411-.603.23-1.252.314-1.894.243-.825 0-1.141-.268-1.408-.632-.258-.465-.423-.976-.486-1.505-.172-.702-.172-1.435 0-2.137v1.068s.122 2.016.777 2.574c.298.215.641.359 1.003.422.361.063.733.044 1.086-.057.582-.122 1.432-.34 1.724-.85.292-.507.403-1.098.315-1.676 0-.68-.145-2.185-.145-2.185z" fill="#858585" opacity=".6"/><path d="m294.71 172.252c.214 1.202.271 2.426.17 3.642-.087.268-.238.511-.442.706-.203.195-.452.336-.724.411-.606.219-1.252.302-1.894.243-.27.017-.541-.034-.787-.149-.246-.114-.459-.289-.621-.507-.256-.458-.42-.961-.486-1.481-.173-.702-.173-1.435 0-2.137v.947s.146 2.234.802 2.793c.302.214.65.356 1.016.415.367.059.741.033 1.096-.075.674-.044 1.306-.339 1.773-.826.26-.526.362-1.117.291-1.7-.048-.752-.194-2.282-.194-2.282z" fill="#5c5c5c" opacity=".8"/><path d="m294.734 172.276c.215 1.194.264 2.411.145 3.618-.086.271-.238.516-.441.715s-.452.345-.724.427c-.606.218-1.253.301-1.894.242-.27.011-.539-.043-.783-.157-.245-.114-.46-.285-.625-.498-.256-.458-.421-.961-.486-1.481-.186-.709-.186-1.453 0-2.161l-.121.801s.194 2.428.849 2.962c.301.218.648.365 1.014.428.367.063.742.041 1.099-.064.583-.121 1.481-.315 1.797-.85.261-.526.362-1.116.291-1.699.146-.753-.121-2.283-.121-2.283z" fill="#333"/><path d="m284.973 172.396c.248 1.188.322 2.407.218 3.617-.092.268-.245.511-.447.709-.203.198-.448.346-.718.433-.606.218-1.253.301-1.894.242-.269.007-.537-.049-.781-.162-.244-.114-.459-.283-.627-.493-.259-.465-.424-.977-.486-1.506-.162-.694-.162-1.417 0-2.112v1.457s0 1.627.728 2.185c.288.217.622.364.977.427.354.063.718.042 1.063-.063.652-.065 1.257-.367 1.7-.85.269-.497.379-1.065.315-1.626.098-.632-.048-2.258-.048-2.258z" fill="#d6d6d6" opacity=".2"/><path d="m284.997 172.396c.236 1.198.309 2.423.218 3.642-.092.269-.249.511-.456.705-.207.195-.459.336-.733.412-.603.23-1.253.313-1.894.242-.271.017-.542-.034-.788-.148-.246-.115-.459-.289-.621-.507-.255-.458-.42-.961-.485-1.481-.175-.702-.175-1.436 0-2.137v1.287s0 1.845.753 2.428c.293.215.63.362.987.429.358.067.725.053 1.076-.041.656-.074 1.266-.374 1.724-.849.272-.514.382-1.098.316-1.676.049-.68-.097-2.306-.097-2.306z" fill="#adadad" opacity=".4"/><path d="m284.997 172.419c.235 1.191.308 2.408.218 3.618-.094.27-.251.515-.458.713s-.457.345-.731.428c-.606.219-1.253.302-1.894.243-.27.01-.539-.044-.784-.158s-.459-.284-.625-.498c-.255-.458-.42-.961-.485-1.481-.176-.701-.176-1.435 0-2.137v1.117s0 2.04.777 2.574c.298.215.64.359 1.002.422s.733.043 1.086-.058c.669-.053 1.293-.357 1.748-.849.272-.514.382-1.098.316-1.676.121-.655-.17-2.258-.17-2.258z" fill="#858585" opacity=".6"/><path d="m285.021 172.445c.226 1.192.291 2.409.194 3.618-.092.269-.249.511-.456.706s-.459.336-.733.411c-.6.243-1.251.334-1.894.267-.27.007-.537-.049-.781-.163-.245-.113-.459-.282-.628-.492-.258-.466-.423-.977-.485-1.506-.174-.701-.174-1.435 0-2.137v.972s.17 2.209.825 2.768c.298.214.641.359 1.003.422.361.063.733.043 1.086-.058.32.019.64-.038.934-.167.293-.13.552-.327.754-.577.202-.249.341-.543.406-.857.066-.314.055-.639-.031-.949.073-.679-.194-2.258-.194-2.258z" fill="#5c5c5c" opacity=".8"/><path d="m285.046 172.47c.214 1.193.271 2.409.17 3.618-.091.266-.244.506-.447.701-.202.194-.449.337-.719.416-.609.239-1.267.33-1.918.267-.269.003-.535-.055-.779-.168-.244-.114-.459-.28-.629-.488-.244-.472-.408-.98-.486-1.505-.173-.71-.173-1.451 0-2.161v.801s.17 2.428.825 2.986c.307.207.654.346 1.018.408.364.063.737.048 1.095-.043.583 0 1.481-.34 1.797-.85.271-.531.373-1.133.291-1.724.024-.704-.218-2.258-.218-2.258z" fill="#333"/><path d="m274.895 176.448c.311 1.18.442 2.4.389 3.618-.114.291-.29.552-.517.766s-.498.376-.794.472c-.626.162-1.277.203-1.918.122-.802 0-1.142-.243-1.409-.607-.258-.474-.423-.993-.485-1.53-.175-.693-.175-1.419 0-2.112v1.457s0 1.651.728 2.185c.293.215.631.362.988.429s.725.053 1.076-.041c.663-.068 1.277-.379 1.724-.874.282-.492.393-1.064.316-1.627.072-.655-.098-2.258-.098-2.258z" fill="#d6d6d6" opacity=".2"/><path d="m274.92 176.448c.3 1.19.423 2.417.364 3.642-.122.286-.301.543-.527.756-.225.213-.492.378-.784.483-.634.121-1.285.121-1.918 0-.802 0-1.166-.219-1.433-.583-.246-.486-.403-1.012-.461-1.554-.175-.693-.175-1.419 0-2.112v1.262s0 1.87.728 2.428c.307.206.653.345 1.017.408s.738.048 1.096-.044c.304.005.606-.057.884-.183.277-.126.523-.311.721-.543.197-.233.34-.505.42-.8.079-.294.092-.602.038-.902.049-.631-.145-2.258-.145-2.258z" fill="#adadad" opacity=".4"/><path d="m274.945 176.568c.277 1.185.384 2.403.315 3.618-.107.289-.275.552-.493.77s-.48.386-.769.493c-.635.159-1.293.201-1.943.121-.801 0-1.189-.194-1.457-.582-.24-.486-.38-1.014-.412-1.554-.172-.702-.172-1.435 0-2.137v1.092s0 2.089.752 2.647c.309.213.66.355 1.029.418s.747.045 1.108-.054c.583 0 1.433-.243 1.797-.898.269-.506.379-1.082.316-1.651-.049-.753-.243-2.283-.243-2.283z" fill="#858585" opacity=".6"/><path d="m274.969 176.592c.268 1.186.366 2.404.291 3.618-.108.288-.277.55-.495.768-.217.217-.479.386-.767.494-.635.161-1.294.202-1.943.122-.801 0-1.214-.195-1.481-.559-.223-.507-.354-1.049-.389-1.602-.169-.694-.169-1.419 0-2.113v.899s0 2.428.753 2.865c.318.212.677.354 1.054.417.376.063.762.045 1.131-.053.583-.121 1.457-.219 1.846-.923.261-.508.362-1.084.291-1.651-.073-.752-.291-2.282-.291-2.282z" fill="#5c5c5c" opacity=".8"/><path d="m274.969 176.617c.255 1.18.353 2.388.291 3.594-.24.575-.692 1.036-1.262 1.287-.643.118-1.301.118-1.943 0-.801 0-1.238-.146-1.505-.51-.212-.518-.335-1.068-.365-1.627-.168-.702-.168-1.434 0-2.137v.729s0 2.549.753 3.083c.324.219.691.365 1.077.428s.78.041 1.157-.063c.583 0 1.481-.17 1.894-.923.251-.521.352-1.101.291-1.676-.145-.655-.388-2.185-.388-2.185z" fill="#333"/><path d="m262.415 203.473v1.165c.098-.364.049-.753 0-1.165z" fill="#f8ba91"/><path d="m305.879 190.218c.108-3.58-.087-7.162-.583-10.708-.656-2.89-4.856-4.857-5.73.437-.802 4.54-1.117 18.793-1.117 18.793l-1.53-10.052-1.093-13.913c0-3.982-6.046-7.285-6.58-.146-.267 3.545.292 9.033.413 14.083.121 5.051 0 9.713 0 9.713s-3.132-17.871-3.327-24.476c0-3.593-6.604-4.856-6.701 0-.146 6.386.947 24.864.947 24.864s-.923-3.982-1.87-7.867c-1.141-4.856-2.015-10.101-2.768-13.427-.388-1.749-4.662-5.051-6.095.461-.801 3.084 1.506 14.569 2.671 22.606 1.36 9.445 2.21 14.811 2.21 14.811-1.847-1.724-3.197-3.913-3.909-6.337-1.481-5.051-4.492-9.227-8.207-6.969v.413c.364-.389 2.209.243 2.428 1.53.216 1.127.266 2.281.145 3.423-.137.409-.353.787-.636 1.112-.284.325-.628.591-1.015.782 1.336 6.071 3.764 14.205 5.852 17.337s12.626 9.518 12.845 11.776c.218 2.259 22.266-2.161 22.266-2.161s4.613-14.568 4.322-19.206c-.442-5.945-1.343-11.847-2.695-17.653-.243-2.865-.219-5.997-.243-9.226zm-30.765-10.563c0 2.016-3.375 2.088-4.152 1.409-.361-.576-.604-1.219-.712-1.891-.109-.671-.081-1.358.081-2.019.536-.669 1.308-1.107 2.157-1.225.849-.117 1.711.095 2.408.594.204 1.031.278 2.083.218 3.132zm10.053-4.152c0 2.04-3.375 2.113-4.176 1.409-.362-.577-.605-1.219-.713-1.891-.109-.672-.081-1.358.081-2.019.536-.669 1.308-1.107 2.157-1.225.849-.117 1.711.095 2.408.594.245 1.026.367 2.077.364 3.132zm9.712-.17c0 2.016-3.399 2.088-4.176 1.409-.363-.581-.605-1.228-.714-1.903-.108-.676-.08-1.366.083-2.031.535-.67 1.309-1.108 2.16-1.221s1.712.107 2.405.614c.198 1.032.271 2.083.218 3.132zm6.046 5.755c-.328-.207-.601-.49-.798-.825-.196-.335-.309-.712-.329-1.1-.021-.387.052-.774.212-1.128s.402-.664.707-.905c.304-.24.662-.405 1.043-.478.381-.074.774-.056 1.147.053.372.11.713.307.993.575.281.268.493.6.619.967 0 0 .291 0 .243 1.845-.049 1.846-3.132 1.627-3.861.996z" fill="#f8ba91"/><path d="m305.733 235.719-25.544 2.306.899 5.949 25.131-2.015z" fill="#f2f2f2"/><path d="m309.181 292.998-2.137-51.112-28.53 2.404.534 48.708z" fill="#40516c"/><g opacity=".4"><path d="m219.705 215.662h-.146zm-.267 0h-.146zm-.389.218h.146zm-.485.413-.17.218zm-40.744-16.536c-3.036 5.404-5.642 11.039-7.795 16.852-1.651 4.613-1.092 20.493-1.092 20.493s21.221 10.975 22.096 8.765c.874-2.209 13.281-5.366 16.462-7.988 3.181-2.623 7.819-9.931 10.927-15.589-.638-.549-1.038-1.323-1.117-2.161.079.838.479 1.612 1.117 2.161.893-1.414 1.649-2.91 2.258-4.467.194-.413.34-.777.461-1.093.122-.316.195-.51.316-.777.019-.033.029-.071.029-.109 0-.039-.01-.076-.029-.11.056-.148.056-.312 0-.461-3.982-5.22-8.887-.801-11.849 3.812-1.343 2.075-2.828 4.055-4.444 5.925 0 0 2.428-5.099 6.483-14.156 3.521-7.77 9.13-18.478 9.203-21.853 0-5.949-5.949-3.934-6.847-2.307-1.724 3.108-3.375 8.183-5.925 12.626l-4.152 7.285s6.532-17.677 8.231-24.112c1.263-4.856-5.876-5.9-6.993-2.428-2.112 6.581-10.392 23.529-10.392 23.529s1.093-4.735 2.695-9.713c1.603-4.977 4.395-10.149 5.123-13.791 1.482-7.285-6.24-5.949-7.284-1.967l-5.075 13.573-4.443 9.591s5.002-13.816 5.463-18.575c.192-.879.063-1.797-.363-2.589-.427-.792-1.123-1.404-1.963-1.727-.839-.323-1.766-.335-2.614-.033-.847.302-1.558.897-2.004 1.678-1.525 3.4-2.752 6.926-3.667 10.538-1.141 3.108-2.064 6.362-3.035 9.178zm41.011 16.269h.121zm0 0h-.146z" fill="#ddd" opacity=".11"/><path d="m219.778 215.612h.242zm-.243 0h.17zm0 0h-.17zm-.267 0h-.146zm-.389.195h.146zm-.485.413-.17.218zm-40.453-16.415c-3.012 5.385-5.601 10.994-7.746 16.779-1.626 4.589-1.092 20.396-1.092 20.396s21.052 10.878 21.853 8.693c.801-2.186 13.209-5.342 16.39-7.965 3.18-2.622 7.77-9.882 10.853-15.515-.626-.548-1.025-1.31-1.117-2.137.092.827.491 1.589 1.117 2.137.887-1.406 1.635-2.894 2.234-4.444.194-.413.34-.777.462-1.092.121-.316.194-.51.315-.777.017-.034.026-.072.026-.11s-.009-.075-.026-.109c.054-.141.054-.296 0-.437-3.836-5.002-8.644-.728-11.582 3.861-1.296 2.075-2.793 4.019-4.468 5.803 0 0 2.428-5.075 6.459-14.083 3.497-7.746 9.081-18.405 9.154-21.683.122-5.925-5.803-3.91-6.701-2.283-1.7 3.084-3.448 8.134-5.974 12.578l-4.127 7.284s6.483-17.652 8.158-24.038c1.263-4.856-5.803-5.828-6.92-2.307-2.088 6.532-10.344 23.407-10.344 23.407s1.093-4.71 2.695-9.712c1.603-5.002 4.298-10.15 5.027-13.743 1.456-7.163-6.144-5.901-7.285-1.943l-5.05 13.525-4.517 9.469c2.188-6.055 3.957-12.253 5.294-18.55.219-.864.114-1.778-.296-2.57-.409-.791-1.095-1.405-1.926-1.725-.832-.32-1.752-.324-2.587-.012-.834.313-1.525.921-1.942 1.708-1.523 3.382-2.741 6.892-3.642 10.49-.995 3.108-1.918 6.337-2.889 9.13zm40.72 16.147h.121zm0 0-.122.146z" fill="#c8c8c8" opacity=".22"/><path d="m218.345 215.3h.17zm0 0h-.146zm-.243 0h-.146zm-.364.194h.146zm-.486.413-.145.218zm-38.34-15.589c-2.897 5.211-5.397 10.633-7.478 16.22-1.603 4.444-1.166 19.668-1.166 19.668s19.959 10.368 20.785 8.256c.825-2.113 12.602-5.221 15.613-7.795 3.011-2.573 7.454-9.566 10.416-15.005-.592-.522-.958-1.253-1.019-2.04.061.787.427 1.518 1.019 2.04.889-1.334 1.614-2.768 2.161-4.274.195-.413.34-.777.462-1.068.121-.292.194-.486.291-.753.017-.034.026-.071.026-.109s-.009-.076-.026-.109c0-.195 0-.365 0-.413-2.938-3.205-6.969 0-9.712 4.419-1.357 2.131-3.26 3.858-5.512 5.002 0 0 2.307-4.856 6.24-13.622 3.375-7.479 8.741-17.798 8.814-20.979.146-5.682-4.856-3.691-5.706-2.137-1.651 3.011-3.982 7.867-6.41 12.141-1.967 3.448-3.958 7.042-3.958 7.042s6.167-17.459 7.819-23.626c1.214-4.638-5.391-5.196-6.484-1.773-2.039 6.313-9.979 22.606-9.979 22.606s1.068-4.54 2.647-9.445c1.578-4.905 3.569-9.956 4.297-13.428 1.433-6.92-5.244-5.487-6.361-1.675l-4.857 13.063-4.249 9.227s3.642-13.792 4.104-18.357c.582-5.39-3.934-4.613-5.342-2.015-1.481 3.263-2.668 6.651-3.545 10.125-1.166 3.06-2.064 6.168-2.987 8.863zm38.607 15.346-.121.146z" fill="#333" opacity=".4"/></g><path d="m216.985 221.707s-.825-.315-.971-2.185c-.061-.583-.002-1.173.173-1.732.176-.56.464-1.078.847-1.522.271-.445.686-.784 1.176-.961s1.026-.18 1.519-.01c0 0-1.627 0-2.04.777-.396.566-.722 1.177-.971 1.821-.26.53-.4 1.11-.413 1.7.066.446.197.879.389 1.287.146.437.291.825.291.825z" fill="#d7d7d7" opacity=".14"/><path d="m216.937 221.686s-.826-.316-.972-2.186c-.065-.579-.007-1.166.168-1.722.176-.557.466-1.07.852-1.507.266-.43.659-.766 1.125-.962.465-.196.98-.242 1.473-.131 0 0-1.627.122-2.064.753-.402.567-.721 1.188-.947 1.845-.259.539-.4 1.127-.412 1.724.047.444.162.878.34 1.287z" fill="#bbb" opacity=".29"/><path d="m216.912 221.687s-.85-.34-.995-2.21c-.068-.576-.012-1.16.164-1.712.176-.553.468-1.062.856-1.493.244-.451.633-.807 1.105-1.009.471-.203.997-.241 1.493-.108 0 0-1.651.122-2.113.753-.39.57-.7 1.191-.922 1.845-.242.544-.374 1.13-.389 1.724.024.453.131.897.316 1.311.267.535.485.899.485.899z" fill="#a0a0a0" opacity=".43"/><path d="m216.888 221.662s-.874-.34-1.02-2.209c-.071-.577-.016-1.161.16-1.714.176-.554.469-1.062.86-1.492.259-.438.649-.784 1.115-.989s.985-.258 1.483-.152c0 0-1.675.146-2.137.777-.398.562-.702 1.185-.898 1.846-.24.553-.38 1.145-.413 1.748.027.452.134.896.316 1.311.151.307.33.6.534.874z" fill="#858585" opacity=".57"/><path d="m216.864 221.662s-.899-.388-1.02-2.258c-.072-.567-.02-1.143.152-1.687.172-.545.46-1.047.844-1.47.236-.46.623-.826 1.095-1.037.472-.212 1.002-.257 1.503-.128 0 0-1.7.145-2.161.753-.4.569-.704 1.201-.899 1.869-.219.559-.35 1.149-.388 1.748.003.461.103.916.291 1.336.156.315.352.609.583.874z" fill="#6a6a6a" opacity=".71"/><path d="m216.839 221.636s-.898-.389-1.044-2.259c-.073-.563-.021-1.135.151-1.676s.46-1.038.845-1.456c.248-.452.633-.813 1.101-1.031.467-.219.991-.283 1.497-.183 0 0-1.724.17-2.185.777-.418.556-.716 1.193-.874 1.87-.233.563-.365 1.163-.389 1.772-.018.46.074.918.267 1.336.149.324.364.614.631.85z" fill="#4e4e4e" opacity=".86"/><path d="m216.791 221.638s-.923-.413-1.044-2.282c-.076-.56-.027-1.129.146-1.667.172-.538.462-1.03.849-1.441.245-.457.629-.823 1.096-1.046.468-.223.994-.29 1.502-.193 0 0-1.748.146-2.233.753-.394.576-.682 1.217-.85 1.894-.199.574-.329 1.168-.389 1.772-.017.468.075.934.267 1.36.153.329.377.619.656.85z" fill="#333"/><path d="m197.294 177.372c-.56 1.08-.968 2.232-1.214 3.424.014.277.094.548.233.789.139.24.334.444.568.595.528.383 1.133.648 1.773.777.255.085.528.108.794.066.267-.043.519-.148.735-.309.361-.387.657-.83.875-1.311.337-.627.512-1.328.51-2.04l-.438 1.408s-.509 1.53-1.311 1.87c-.339.118-.699.16-1.056.122-.357-.037-.701-.154-1.008-.34-.297-.079-.573-.226-.805-.427-.232-.202-.415-.455-.535-.739-.119-.283-.172-.591-.155-.898.018-.307.106-.606.257-.874.219-.608.777-2.113.777-2.113z" fill="#ddd" opacity=".17"/><path d="m197.269 177.372c-.549 1.085-.957 2.235-1.214 3.424.018.282.103.557.246.802.143.244.342.452.579.606.526.383 1.132.641 1.773.753.255.083.525.107.79.069s.518-.137.74-.288c.357-.389.652-.831.874-1.311.334-.637.509-1.345.51-2.064l-.389 1.287s-.558 1.675-1.36 2.015c-.337.122-.696.168-1.053.135-.357-.034-.702-.146-1.011-.329-.534-.291-1.238-.753-1.408-1.311-.146-.55-.095-1.135.146-1.651.218-.632.777-2.137.777-2.137z" fill="#bbb" opacity=".33"/><path d="m197.269 177.372c-.559 1.089-.967 2.249-1.214 3.448.012.281.094.555.238.796.144.242.346.444.587.588.513.394 1.113.66 1.749.777.255.088.528.111.795.069.266-.042.519-.149.734-.312.379-.363.677-.801.874-1.287.35-.631.534-1.342.535-2.064l-.316 1.142s-.631 1.845-1.433 2.185c-.342.122-.707.166-1.069.128-.361-.038-.709-.156-1.019-.347-.534-.267-1.262-.728-1.408-1.311-.139-.559-.087-1.148.146-1.675.218-.632.801-2.137.801-2.137z" fill="#999" opacity=".5"/><path d="m197.245 177.397c-.546 1.084-.946 2.236-1.19 3.424.012.284.094.561.238.807.144.245.346.452.587.601.516.385 1.115.643 1.749.753.254.085.525.11.79.072.266-.038.519-.137.739-.29.373-.377.67-.822.874-1.312.347-.634.539-1.341.559-2.063l-.267 1.044s-.704 1.966-1.481 2.428c-.348.122-.719.164-1.085.122s-.717-.167-1.028-.365c-.534-.267-1.287-.729-1.457-1.311-.119-.565-.051-1.153.195-1.676.218-.752.777-2.234.777-2.234z" fill="#7d899a" opacity=".67"/><path d="m197.22 177.397c-.538 1.093-.93 2.253-1.165 3.448.005.28.082.554.222.796s.339.445.579.588c.522.394 1.129.66 1.773.777.255.088.528.112.795.07.266-.043.519-.15.734-.312.371-.37.668-.806.874-1.287.348-.643.54-1.358.559-2.088l-.194.922s-.777 2.137-1.554 2.428c-.348.123-.719.165-1.085.122-.366-.042-.717-.166-1.028-.364-.534-.268-1.311-.705-1.481-1.287-.109-.582-.041-1.182.194-1.724.219-.607.777-2.089.777-2.089z" fill="#555" opacity=".83"/><path d="m197.196 177.42c-.525 1.088-.909 2.238-1.141 3.424.01.282.088.557.227.802.14.245.337.453.574.606.526.383 1.132.641 1.773.753.777.145 1.165 0 1.505-.219.379-.377.684-.822.898-1.311.351-.633.543-1.341.559-2.064l-.121.777s-.85 2.282-1.627 2.647c-.351.126-.726.17-1.097.128s-.726-.169-1.04-.371c-.534-.267-1.311-.729-1.481-1.311-.11-.581-.043-1.182.194-1.724.219-.68.777-2.137.777-2.137z" fill="#333"/><path d="m206.546 180.212c-.556 1.082-.964 2.233-1.215 3.424.01.282.089.557.228.802.14.245.336.453.574.606.528.383 1.132.648 1.772.777.257.082.528.102.794.06s.518-.146.736-.303c.357-.389.652-.832.874-1.311.335-.637.51-1.345.51-2.064l-.437 1.433s-.51 1.505-1.311 1.845c-.337.122-.697.168-1.054.134-.357-.033-.702-.146-1.01-.328-.598-.254-1.088-.709-1.384-1.287-.126-.552-.075-1.13.146-1.651.218-.729.777-2.137.777-2.137z" fill="#ddd" opacity=".17"/><path d="m206.544 180.236c-.57 1.078-.986 2.231-1.238 3.424.013.284.094.561.238.806.144.246.346.452.588.602.515.385 1.114.643 1.748.753.255.088.528.111.795.069s.519-.149.734-.312c.379-.368.684-.805.899-1.287.334-.636.509-1.345.51-2.064l-.389 1.287s-.558 1.676-1.359 2.016c-.339.118-.7.16-1.057.122s-.701-.154-1.007-.341c-.61-.245-1.11-.702-1.409-1.287-.138-.559-.087-1.148.146-1.675.219-.729.801-2.113.801-2.113z" fill="#bbb" opacity=".33"/><path d="m206.52 180.236c-.556 1.082-.964 2.234-1.214 3.424.013.284.094.561.238.806.144.246.346.452.588.602.515.39 1.113.655 1.748.777.256.082.528.103.793.06.266-.042.518-.146.736-.303.379-.372.676-.818.875-1.311.352-.63.536-1.341.534-2.064l-.316 1.166s-.631 1.821-1.432 2.161c-.341.126-.705.173-1.067.14-.361-.034-.71-.148-1.022-.334-.534-.292-1.262-.753-1.408-1.312-.14-.559-.089-1.149.146-1.675.218-.728.801-2.137.801-2.137z" fill="#999" opacity=".5"/><path d="m206.496 180.261c-.55 1.082-.95 2.234-1.19 3.423.013.285.094.561.238.807.144.245.346.452.588.602.512.389 1.113.647 1.748.752.255.088.528.112.795.069.267-.042.519-.149.735-.311.378-.363.676-.802.874-1.287.352-.64.536-1.358.534-2.088l-.243 1.068s-.704 1.967-1.481 2.428c-.346.126-.716.172-1.081.134-.366-.038-.719-.158-1.032-.353-.534-.267-1.286-.728-1.456-1.311-.12-.572-.052-1.168.194-1.699.218-.85.777-2.234.777-2.234z" fill="#7d899a" opacity=".67"/><path d="m206.472 180.261c-.536 1.086-.928 2.236-1.166 3.423.012.282.091.557.23.801.14.245.335.454.571.608.528.383 1.133.648 1.773.777.256.081.528.102.794.06.265-.042.517-.146.736-.303.36-.387.656-.83.874-1.311.35-.633.542-1.341.558-2.064l-.194.922s-.777 2.113-1.554 2.429c-.351.126-.726.17-1.097.128-.37-.042-.726-.169-1.04-.371-.534-.267-1.287-.729-1.457-1.311-.106-.574-.039-1.166.195-1.7.218-.68.777-2.088.777-2.088z" fill="#555" opacity=".83"/><path d="m206.447 180.284c-.529 1.086-.912 2.237-1.141 3.424.01.282.088.557.228.802.139.246.336.453.573.606.526.383 1.132.641 1.773.753.256.085.528.108.794.066.267-.042.519-.148.736-.309.362-.376.658-.811.874-1.287.348-.642.539-1.358.558-2.088l-.121.801s-.85 2.283-1.627 2.623c-.351.126-.726.17-1.097.128-.37-.042-.726-.169-1.04-.371-.534-.267-1.335-.704-1.481-1.311-.107-.582-.04-1.182.194-1.724.219-.729.777-2.113.777-2.113z" fill="#333"/><path d="m262.343 202.694c0-.728 2.258-.121 2.598 1.336.216 1.128.265 2.281.145 3.424-.137.408-.353.786-.637 1.111-.283.325-.628.591-1.014.782-.644-2.162-1.011-4.398-1.092-6.653z" fill="#ffd8be"/><path d="m281.015 176.908c.777.68 4.079.632 4.103-1.359.045-1.044-.044-2.088-.267-3.108-.684-.502-1.534-.721-2.374-.612-.841.108-1.608.536-2.142 1.194-.296 1.334-.051 2.731.68 3.885z" fill="#ffd8be"/><path d="m290.679 176.69c.777.704 4.103.655 4.152-1.384.045-1.044-.045-2.088-.267-3.108-.689-.506-1.546-.725-2.393-.612s-1.617.55-2.148 1.219c-.158.658-.181 1.341-.069 2.009.113.668.359 1.306.725 1.876z" fill="#ffd8be"/><path d="m300.658 182.492c.777.679 4.104.631 4.152-1.384.044-1.042-.037-2.086-.242-3.108-.693-.508-1.554-.728-2.405-.615-.851.114-1.625.551-2.16 1.222-.157.658-.18 1.341-.067 2.009.113.667.358 1.305.722 1.876z" fill="#ffd8be"/><path d="m270.962 181.059c.777.68 4.128.607 4.152-1.408.059-1.049-.014-2.101-.218-3.132-.697-.499-1.559-.711-2.408-.594-.849.118-1.621.556-2.157 1.225-.162.661-.19 1.347-.081 2.019.108.671.35 1.314.712 1.89z" fill="#ffd8be"/><path d="m219.899 215.613c.267-.68-2.137-.729-2.865.558-.523 1.025-.891 2.121-1.093 3.254.013.433.115.859.299 1.251.183.393.445.743.769 1.031 1.206-1.908 2.176-3.954 2.89-6.094z" fill="#ffd8be"/><path d="m209.094 185.649c-.947.437-4.104-.509-3.569-2.428.249-1.014.624-1.993 1.117-2.913.794-.287 1.667-.26 2.443.073.775.334 1.395.95 1.733 1.723-.024.679-.189 1.345-.486 1.956-.297.61-.719 1.152-1.238 1.589z" fill="#ffd8be"/><path d="m199.891 182.783c-.947.437-4.128-.534-3.618-2.428.247-1.019.613-2.006 1.093-2.938.803-.297 1.69-.27 2.473.074.784.344 1.403.979 1.728 1.771-.03.669-.193 1.326-.481 1.93-.288.605-.694 1.146-1.195 1.591z" fill="#ffd8be"/><path d="m188.673 185.6c-.947.437-4.127-.534-3.593-2.428.242-1.013.609-1.992 1.092-2.914.804-.291 1.688-.261 2.47.082.782.344 1.402.975 1.731 1.763-.085 1.344-.696 2.6-1.7 3.497z" fill="#ffd8be"/><path d="m217.617 192.447c-.947.437-4.128-.558-3.618-2.428.246-1.019.613-2.005 1.092-2.938.81-.29 1.7-.258 2.487.09.786.348 1.409.985 1.738 1.78-.095 1.341-.704 2.593-1.699 3.496z" fill="#ffd8be"/><path d="m215.066 187.009c-.591 1.065-1.025 2.21-1.287 3.399.02.295.11.58.262.834.152.253.362.466.612.623.537.358 1.139.606 1.773.728.253.089.525.116.791.078s.52-.14.738-.296c.366-.374.662-.81.875-1.287.357-.645.534-1.375.509-2.112l-.437 1.432s-.51 1.53-1.287 1.87c-.34.126-.704.173-1.066.14-.361-.034-.71-.148-1.022-.334-.616-.25-1.112-.729-1.384-1.336-.148-.54-.105-1.115.122-1.627.218-.728.801-2.112.801-2.112z" fill="#8a6868" opacity=".17"/><path d="m215.042 187.009c-.587 1.067-1.02 2.211-1.287 3.399.019.295.106.582.253.839.148.257.352.476.597.642.55.361 1.171.601 1.821.704.777.146 1.165 0 1.53-.194.37-.369.667-.806.874-1.287.378-.647.563-1.388.534-2.136l-.389 1.311s-.558 1.699-1.359 2.039c-.346.126-.716.172-1.082.134s-.718-.158-1.031-.352c-.301-.083-.579-.232-.814-.438-.235-.205-.42-.462-.542-.749-.121-.288-.176-.599-.16-.911.016-.311.103-.615.254-.889.218-.728.801-2.112.801-2.112z" fill="#8a6868" opacity=".33"/><path d="m215.043 187.009c-.6 1.072-1.042 2.225-1.311 3.423.021.299.108.589.255.849s.35.485.595.657c.56.335 1.177.566 1.821.68.255.09.527.122.796.093.269-.03.528-.12.758-.263.365-.383.661-.827.874-1.311.388-.653.582-1.403.558-2.161l-.34 1.189s-.631 1.87-1.408 2.234c-.356.118-.734.158-1.107.116s-.733-.164-1.054-.359c-.323-.116-.618-.299-.865-.538s-.44-.527-.568-.846c-.139-.553-.078-1.137.17-1.651.219-.704.826-2.112.826-2.112z" fill="#8a6868" opacity=".5"/><path d="m215.018 187.032c-.596 1.065-1.038 2.21-1.311 3.4.024.304.112.6.258.868.147.268.349.501.592.686.566.333 1.194.547 1.845.631.802.146 1.19.146 1.554-.146.371-.369.668-.806.874-1.287.412-.66.607-1.433.559-2.209l-.243 1.068s-.704 2.04-1.505 2.428c-.361.117-.742.156-1.119.114s-.74-.163-1.067-.357c-.334-.113-.64-.297-.896-.54-.255-.244-.455-.54-.585-.868-.098-.56-.022-1.136.219-1.651.218-.753.825-2.137.825-2.137z" fill="#8a6868" opacity=".67"/><path d="m214.995 187.032c-.597 1.065-1.039 2.21-1.312 3.4.024.311.111.614.257.89.147.276.349.518.593.712.579.321 1.213.527 1.87.607.801.146 1.19.146 1.554-.146.371-.374.675-.809.898-1.286.292-.535.777-1.773.559-2.234l-.194.947s-.777 2.234-1.554 2.573c-.37.121-.761.16-1.147.114-.386-.047-.757-.176-1.087-.381-.342-.112-.654-.299-.914-.547-.26-.247-.462-.55-.592-.885-.087-.562-.003-1.138.243-1.651.219-.729.826-2.113.826-2.113z" fill="#8a6868" opacity=".83"/><path d="m214.994 187.058c-.596 1.068-1.045 2.211-1.335 3.399.073.623.366 1.2.825 1.627.603.293 1.252.482 1.919.558.801.146 1.189.195 1.554 0 .365-.388.668-.83.898-1.311.291-.51.801-1.772.583-2.258l-.146.826s-.826 2.428-1.627 2.743c-.374.114-.768.149-1.157.103-.388-.046-.763-.172-1.101-.37-.351-.114-.671-.307-.936-.564-.265-.256-.468-.57-.594-.917-.09-.565.004-1.143.267-1.651.245-.743.528-1.473.85-2.185z" fill="#8a6868"/><path d="m219.729 216.343c0 .315-.267.68-.461 1.092.172-.355.326-.72.461-1.092z" fill="#f8ba91"/><path d="m178.815 200.365c-2.897 5.211-5.397 10.633-7.478 16.22-1.579 4.468-1.166 19.668-1.166 19.668s19.959 10.368 20.809 8.256c.85-2.113 12.578-5.221 15.589-7.77 3.01-2.55 7.454-9.567 10.441-15.031-.325-.287-.587-.638-.77-1.03-.184-.393-.286-.819-.299-1.252.202-1.132.57-2.229 1.093-3.254.655-1.141 2.598-1.238 2.865-.752 0-.219 0-.365 0-.437-2.938-3.206-6.969 0-9.712 4.419-1.357 2.13-3.26 3.858-5.512 5.002 0 0 2.282-4.857 6.216-13.622 3.375-7.479 8.741-17.798 8.838-20.955.121-5.706-4.856-3.715-5.73-2.161-1.651 3.011-3.958 7.867-6.411 12.141l-3.957 7.041s6.167-17.458 7.818-23.625c1.214-4.638-5.39-5.196-6.483-1.773-2.015 6.313-9.955 22.606-9.955 22.606s1.044-4.541 2.622-9.445c1.578-4.905 3.594-9.956 4.298-13.428 1.432-6.92-5.245-5.487-6.362-1.675l-4.856 13.063-4.249 9.227s3.618-13.768 4.103-18.357c.583-5.39-3.958-4.613-5.366-2.015-1.467 3.268-2.653 6.656-3.545 10.125-1.02 3.011-1.918 6.119-2.841 8.814zm36.276-13.379c.81-.29 1.7-.257 2.487.091.786.348 1.408.985 1.738 1.779-.07 1.375-.681 2.667-1.699 3.594-.947.437-4.128-.559-3.618-2.428.238-1.053.605-2.072 1.092-3.036zm-8.498-6.75c.806-.295 1.695-.265 2.479.084s1.402.989 1.722 1.786c-.026.677-.188 1.342-.475 1.955-.288.613-.697 1.162-1.201 1.614-.947.437-4.128-.534-3.618-2.428.241-1.044.608-2.055 1.093-3.011zm-9.251-2.865c.806-.295 1.695-.265 2.479.084s1.401.989 1.721 1.786c-.025.677-.187 1.341-.475 1.955-.287.613-.696 1.162-1.2 1.614-.947.437-4.128-.534-3.618-2.428.241-1.044.608-2.055 1.093-3.011zm-11.922 4.856c.461-1.724.752-1.724.752-1.724.225-.314.522-.57.865-.746.344-.177.725-.269 1.111-.269.386.001.767.093 1.11.27.344.177.64.433.865.747.224.315.371.678.426 1.06.056.382.02.772-.105 1.138-.125.365-.335.696-.614.964-.278.267-.617.465-.987.576-.874.315-3.885-.292-3.423-2.089z" fill="#f8ba91"/><path d="m169.03 235.306 23.893 9.299-2.501 5.488-23.577-8.911z" fill="#f2f2f2"/><path d="m181.365 292.999 11.46-41.909-26.757-10.198-17.871 52.107z" fill="#40516c"/><path d="m187.484 252.838c-.387-.163-.823-.168-1.213-.014-.391.155-.705.456-.876.84-.118.376-.093.782.069 1.141.163.36.452.646.813.805.36.16.767.18 1.142.059.375-.122.692-.378.89-.718.085-.193.131-.401.135-.611.004-.211-.033-.42-.11-.617-.076-.196-.191-.375-.337-.527s-.32-.273-.513-.358z" fill="#fff"/><path d="m283.419 247.034c-.419 0-.82.166-1.116.462s-.463.698-.463 1.116c0 .419.167.82.463 1.116s.697.463 1.116.463c.418 0 .82-.167 1.116-.463s.462-.697.462-1.116c0-.418-.166-.82-.462-1.116s-.698-.462-1.116-.462z" fill="#fff"/><path d="m89.5223 266.489-3.1982 2.031c-1.0971.697-1.4218 2.151-.7252 3.248l.4667.735c.6966 1.097 2.1507 1.422 3.2478.725l3.1982-2.031c1.0971-.696 1.4218-2.15.7252-3.248l-.4667-.735c-.6966-1.097-2.1507-1.421-3.2478-.725z" fill="#c7ccd3"/><path d="m134.608 237.872-43.3156 27.524 2.9909 4.707 43.3157-27.524z" fill="#ffcb50"/><path d="m91.252 265.407-2.2263 1.41 2.9969 4.731 2.2264-1.41z" fill="#fff"/><path d="m137.61 242.568 7.026-7.757-10.025 3.048z" fill="#f2cab0"/><path d="m144.636 234.809-1.376 1.511-.63-.992z" fill="#40516c"/><path d="m134.611 237.892-43.3204 27.516.8201 1.291 43.3203-27.516z" fill="#f0ba3d"/><path d="m136.716 241.16-43.3154 27.525.896 1.41 43.3154-27.525z" fill="#f0ba3d"/><path d="m136.416 223.649 7.212-3.52-8.013-.219z" fill="#7d899a"/><path d="m107.934 227.827c.243 1.044 1.19 2.817 1.894 2.671l26.394-6.75c.68-.146 1.044-1.117.825-2.161-.218-1.044-.971-1.773-1.651-1.627l-26.709 4.686c-.704.146-.85 2.161-.632 3.205z" fill="#40516c"/><path d="m110.702 227.218c.267 1.238.17 3.545-.51 3.691l-26.8791 4.516c-.6799.146-1.4569-.704-1.724-1.942-.267-1.215 0-2.429.777-2.429l26.3451-6.92c.704-.145 1.724 1.918 1.991 3.133z" fill="#7d899a"/></svg>